<svg width="48" height="24" viewBox="0 0 48 24" fill="none" xmlns="http://www.w3.org/2000/svg">
<path opacity="0.6" d="M32.608 7.76V6.432H35.616V18H34.144V7.76H32.608ZM38.117 12.096C38.117 10.2613 38.4157 8.832 39.013 7.808C39.6103 6.77333 40.6557 6.256 42.149 6.256C43.6317 6.256 44.6717 6.77333 45.269 7.808C45.8663 8.832 46.165 10.2613 46.165 12.096C46.165 13.9627 45.8663 15.4133 45.269 16.448C44.6717 17.4827 43.6317 18 42.149 18C40.6557 18 39.6103 17.4827 39.013 16.448C38.4157 15.4133 38.117 13.9627 38.117 12.096ZM44.725 12.096C44.725 11.168 44.661 10.384 44.533 9.744C44.4157 9.09333 44.165 8.57067 43.781 8.176C43.4077 7.78133 42.8637 7.584 42.149 7.584C41.4237 7.584 40.869 7.78133 40.485 8.176C40.1117 8.57067 39.861 9.09333 39.733 9.744C39.6157 10.384 39.557 11.168 39.557 12.096C39.557 13.056 39.6157 13.8613 39.733 14.512C39.861 15.1627 40.1117 15.6853 40.485 16.08C40.869 16.4747 41.4237 16.672 42.149 16.672C42.8637 16.672 43.4077 16.4747 43.781 16.08C44.165 15.6853 44.4157 15.1627 44.533 14.512C44.661 13.8613 44.725 13.056 44.725 12.096Z" fill="black"/>
<path d="M7.5 4C4.4625 4 2 6.4625 2 9.5C2 15 8.5 20 12 21.163C15.5 20 22 15 22 9.5C22 6.4625 19.5375 4 16.5 4C14.64 4 12.995 4.9235 12 6.337C11.4928 5.6146 10.8191 5.02505 10.0358 4.61824C9.25245 4.21144 8.38265 3.99938 7.5 4Z" stroke="black" stroke-width="2" stroke-linecap="round" stroke-linejoin="round"/>
</svg>
