<svg width="48" height="24" viewBox="0 0 48 24" fill="none" xmlns="http://www.w3.org/2000/svg">
<path opacity="0.6" d="M38.96 9.344C39.0347 8.36267 39.4133 7.59467 40.096 7.04C40.7787 6.48533 41.664 6.208 42.752 6.208C43.4773 6.208 44.1013 6.34133 44.624 6.608C45.1573 6.864 45.5573 7.216 45.824 7.664C46.1013 8.112 46.24 8.61867 46.24 9.184C46.24 9.84533 46.048 10.416 45.664 10.896C45.2907 11.376 44.8 11.6853 44.192 11.824V11.904C44.8853 12.0747 45.4347 12.4107 45.84 12.912C46.2453 13.4133 46.448 14.0693 46.448 14.88C46.448 15.488 46.3093 16.0373 46.032 16.528C45.7547 17.008 45.3387 17.3867 44.784 17.664C44.2293 17.9413 43.5627 18.08 42.784 18.08C41.6533 18.08 40.7253 17.7867 40 17.2C39.2747 16.6027 38.8693 15.76 38.784 14.672H40.192C40.2667 15.312 40.528 15.8347 40.976 16.24C41.424 16.6453 42.0213 16.848 42.768 16.848C43.5147 16.848 44.08 16.656 44.464 16.272C44.8587 15.8773 45.056 15.3707 45.056 14.752C45.056 13.952 44.7893 13.376 44.256 13.024C43.7227 12.672 42.9173 12.496 41.84 12.496H41.472V11.28H41.856C42.8373 11.2693 43.5787 11.1093 44.08 10.8C44.5813 10.48 44.832 9.98933 44.832 9.328C44.832 8.76267 44.6453 8.30933 44.272 7.968C43.9093 7.62667 43.3867 7.456 42.704 7.456C42.0427 7.456 41.5093 7.62667 41.104 7.968C40.6987 8.30933 40.4587 8.768 40.384 9.344H38.96Z" fill="black"/>
<g clip-path="url(#clip0_459_298)">
<path d="M6.75018 9.75C5.92049 9.75 5.25018 10.4203 5.25018 11.25C5.25018 12.0797 5.92049 12.75 6.75018 12.75C7.57987 12.75 8.25018 12.0797 8.25018 11.25C8.25018 10.4203 7.57987 9.75 6.75018 9.75ZM12.0002 9.75C11.1705 9.75 10.5002 10.4203 10.5002 11.25C10.5002 12.0797 11.1705 12.75 12.0002 12.75C12.8299 12.75 13.5002 12.0797 13.5002 11.25C13.5002 10.4203 12.8299 9.75 12.0002 9.75ZM17.2502 9.75C16.4205 9.75 15.7502 10.4203 15.7502 11.25C15.7502 12.0797 16.4205 12.75 17.2502 12.75C18.0799 12.75 18.7502 12.0797 18.7502 11.25C18.7502 10.4203 18.0799 9.75 17.2502 9.75ZM12.0002 1.5C5.37206 1.5 0.000181322 5.86406 0.000181322 11.25C0.000181322 13.4812 0.932994 15.525 2.47987 17.1703C1.78143 19.0172 0.328306 20.5828 0.304869 20.6016C-0.00450618 20.9297 -0.0888812 21.4078 0.0892438 21.8203C0.267369 22.2328 0.675181 22.5 1.12518 22.5C4.00799 22.5 6.28143 21.2953 7.64549 20.3297C9.00018 20.7563 10.4627 21 12.0002 21C18.6283 21 24.0002 16.6359 24.0002 11.25C24.0002 5.86406 18.6283 1.5 12.0002 1.5ZM12.0002 18.75C10.7486 18.75 9.51112 18.5578 8.32518 18.1828L7.26112 17.8453L6.34706 18.4922C5.67674 18.9656 4.75799 19.4953 3.65174 19.8516C3.99393 19.2844 4.32674 18.6469 4.58456 17.9672L5.08143 16.65L4.11581 15.6281C3.26737 14.7234 2.25018 13.2281 2.25018 11.25C2.25018 7.11563 6.62362 3.75 12.0002 3.75C17.3767 3.75 21.7502 7.11563 21.7502 11.25C21.7502 15.3844 17.3767 18.75 12.0002 18.75Z" fill="black"/>
</g>
<defs>
<clipPath id="clip0_459_298">
<rect width="24" height="24" fill="white"/>
</clipPath>
</defs>
</svg>
